<?xml version="1.0" encoding="UTF-8"?>
<svg version="1.1" xmlns="http://www.w3.org/2000/svg" width="258" height="116">
<path d="M0 0 C85.14 0 170.28 0 258 0 C258 38.28 258 76.56 258 116 C172.86 116 87.72 116 0 116 C0 77.72 0 39.44 0 0 Z " fill="#FEFEFE" transform="translate(0,0)"/>
<path d="M0 0 C0.66 0 1.32 0 2 0 C3.15063477 1.55932617 3.15063477 1.55932617 4.44140625 3.79296875 C4.93479492 4.63746582 5.42818359 5.48196289 5.93652344 6.35205078 C6.4730957 7.28774902 7.00966797 8.22344727 7.5625 9.1875 C8.72505011 11.18892426 9.88782259 13.19021936 11.05078125 15.19140625 C11.67936035 16.27824707 12.30793945 17.36508789 12.95556641 18.48486328 C15.14718168 22.26391157 17.37574453 26.02069764 19.60546875 29.77734375 C20.77056188 31.74529663 21.93507765 33.71358975 23.09933472 35.68203735 C23.86477634 36.97452831 24.6316371 38.2661799 25.39993286 39.55697632 C26.48495931 41.38155152 27.56348299 43.20982469 28.640625 45.0390625 C29.26485352 46.09303223 29.88908203 47.14700195 30.53222656 48.23291016 C32.77723571 52.46526772 32.77723571 52.46526772 33 55 C32.22729492 56.87524414 32.22729492 56.87524414 30.98046875 58.78515625 C30.53509766 59.48060547 30.08972656 60.17605469 29.63085938 60.89257812 C29.15455078 61.60865234 28.67824219 62.32472656 28.1875 63.0625 C27.72279297 63.78244141 27.25808594 64.50238281 26.77929688 65.24414062 C24.87900482 68.1804599 22.94010195 71.08984708 21 74 C18.36776733 74.36076355 18.36776733 74.36076355 14.98974609 74.34057617 C13.72858978 74.34034958 12.46743347 74.34012299 11.1680603 74.33988953 C9.78651579 74.32456844 8.40497487 74.30892044 7.0234375 74.29296875 C5.61382497 74.28737433 4.20420662 74.2831035 2.79458618 74.28010559 C-0.91768464 74.26864454 -4.629604 74.23916704 -8.34173584 74.20599365 C-12.12881719 74.1753196 -15.91595526 74.16160599 -19.703125 74.14648438 C-27.135577 74.11429811 -34.56773928 74.0630871 -42 74 C-40.53614425 70.2503395 -38.86838835 66.83269359 -36.8671875 63.3359375 C-36.23361328 62.22686035 -35.60003906 61.1177832 -34.94726562 59.97509766 C-34.25670829 58.77495123 -33.56594793 57.5749216 -32.875 56.375 C-32.16075721 55.12942325 -31.4465653 53.88381732 -30.73242188 52.63818359 C-25.06985904 42.78044715 -19.2907731 32.99340735 -13.47607422 23.22485352 C-8.89709089 15.53094292 -4.3861308 7.80558146 0 0 Z " fill="#FEFDFC" transform="translate(64,27)"/>
<path d="M0 0 C4.33751396 1.44583799 5.29362672 4.71842799 7.3125 8.5625 C8.20844659 10.2213998 9.10702299 11.87888118 10.0078125 13.53515625 C10.49024414 14.42348145 10.97267578 15.31180664 11.46972656 16.22705078 C14.12290925 21.03478035 16.90748941 25.76483851 19.6875 30.5 C25.38216868 40.2187135 31.02596397 49.96544513 36.64379883 59.72875977 C40.74946329 66.85605445 44.89222735 73.95977883 49.12011719 81.01538086 C50.69372112 83.66167868 52.0227133 86.0681399 53 89 C18.68 89 -15.64 89 -51 89 C-49.55780429 85.39451073 -48.21152631 82.46431304 -46.26953125 79.17578125 C-45.72176025 78.24330566 -45.17398926 77.31083008 -44.60961914 76.35009766 C-43.72004517 74.84648682 -43.72004517 74.84648682 -42.8125 73.3125 C-41.53587334 71.13966652 -40.2598519 68.96647735 -38.984375 66.79296875 C-38.32501953 65.67067871 -37.66566406 64.54838867 -36.98632812 63.39208984 C-33.81967718 57.98434054 -30.69022645 52.5553269 -27.5625 47.125 C-26.94818115 46.05950928 -26.3338623 44.99401855 -25.70092773 43.89624023 C-22.77328242 38.81751638 -19.84841521 33.73720446 -16.92692566 28.65493774 C-15.90350745 26.8749866 -14.87946987 25.09539331 -13.85522461 23.31591797 C-12.57221373 21.08650663 -11.29039912 18.85640624 -10.01000977 16.62548828 C-6.77819012 11.01164661 -3.47438493 5.46723968 0 0 Z M0 11 C-0.3810791 11.66193359 -0.7621582 12.32386719 -1.15478516 13.00585938 C-8.12037802 25.10147506 -15.09484829 37.19175285 -22.125 49.25 C-22.68993164 50.21953613 -23.25486328 51.18907227 -23.83691406 52.18798828 C-26.78976071 57.24627699 -29.7637917 62.29092514 -32.765625 67.3203125 C-33.67417236 68.84543457 -33.67417236 68.84543457 -34.60107422 70.40136719 C-35.76023511 72.34446927 -36.92316399 74.28532983 -38.09033203 76.22363281 C-38.60450684 77.08569336 -39.11868164 77.94775391 -39.6484375 78.8359375 C-40.33172119 79.97361572 -40.33172119 79.97361572 -41.02880859 81.13427734 C-42.15391093 82.94511261 -42.15391093 82.94511261 -42 85 C-33.99442308 85.44290421 -25.99405157 85.77901729 -17.97920609 85.98443127 C-14.25562741 86.08310919 -10.54049028 86.21641697 -6.82177734 86.43334961 C9.11697321 87.95197042 9.11697321 87.95197042 23.58618164 83.13824463 C28.01446414 78.36011519 31.59709693 72.41981424 33 66 C32.44809971 62.48892763 30.92604598 59.86342426 29.1484375 56.80078125 C28.55119873 55.76743652 27.95395996 54.7340918 27.33862305 53.66943359 C26.69062744 52.56164551 26.04263184 51.45385742 25.375 50.3125 C24.71218018 49.17377441 24.04936035 48.03504883 23.36645508 46.86181641 C21.61072779 43.84985549 19.84653246 40.84294207 18.07952881 37.83758545 C17.00223147 36.00379844 15.92784046 34.16833487 14.85400391 32.33251953 C12.80950529 28.84010822 10.74996587 25.35683255 8.6875 21.875 C8.04796387 20.78485596 7.40842773 19.69471191 6.74951172 18.5715332 C6.15541504 17.57597412 5.56131836 16.58041504 4.94921875 15.5546875 C4.42674561 14.67280762 3.90427246 13.79092773 3.3659668 12.88232422 C2.91519775 12.26115723 2.46442871 11.63999023 2 11 C1.34 11 0.68 11 0 11 Z " fill="#BCAA6A" transform="translate(64,16)"/>
<path d="M0 0 C3.07469523 1.70251719 5.40613254 3.81226508 7 7 C7.59490278 12.72021903 7.20728341 17.07452904 4 22 C1.8125 24.375 1.8125 24.375 0 26 C2.31 26.99 4.62 27.98 7 29 C6.67 29.66 6.34 30.32 6 31 C0.62595958 30.58661228 -1.32524771 29.7895883 -5 26 C-6.155 25.690625 -7.31 25.38125 -8.5 25.0625 C-12 24 -12 24 -14.4375 22.125 C-16.90288237 17.19423527 -16.86777502 12.39624804 -16 7 C-12.53212669 0.19221919 -7.11121478 -1.0977043 0 0 Z " fill="#F8F8F8" transform="translate(227,43)"/>
<path d="M0 0 C0.99 0 1.98 0 3 0 C3 0.66 3 1.32 3 2 C2.01 2 1.02 2 0 2 C0.33 2.66 0.66 3.32 1 4 C1.44906445 9.27650728 1.44906445 9.27650728 -0.125 11.8125 C-2.66676215 13.42228269 -5.0398108 13.67109009 -8 14 C-8 14.66 -8 15.32 -8 16 C-6.93458984 16.09087891 -6.93458984 16.09087891 -5.84765625 16.18359375 C-4.92855469 16.26738281 -4.00945312 16.35117188 -3.0625 16.4375 C-1.68771484 16.55931641 -1.68771484 16.55931641 -0.28515625 16.68359375 C2 17 2 17 3 18 C3.375 20.875 3.375 20.875 3 24 C0.13634808 26.68467367 -2.38544935 27.19476801 -6.1875 27.3125 C-10 27 -10 27 -12 25 C-12.125 22.375 -12.125 22.375 -12 20 C-11.34 20 -10.68 20 -10 20 C-10.165 19.0925 -10.33 18.185 -10.5 17.25 C-11.26146238 12.30049451 -10.75595765 7.91372475 -10 3 C-9.04287109 2.80083984 -9.04287109 2.80083984 -8.06640625 2.59765625 C-7.24011719 2.42105469 -6.41382813 2.24445312 -5.5625 2.0625 C-4.32693359 1.80146484 -4.32693359 1.80146484 -3.06640625 1.53515625 C-1.02338796 1.19247006 -1.02338796 1.19247006 0 0 Z " fill="#7C7C7C" transform="translate(176,50)"/>
<path d="M0 0 C0.99 0 1.98 0 3 0 C3.23187012 0.6612085 3.46374023 1.32241699 3.70263672 2.00366211 C4.75259356 4.98431171 5.81363214 7.96089567 6.875 10.9375 C7.23980469 11.97841797 7.60460937 13.01933594 7.98046875 14.09179688 C8.51220703 15.57583008 8.51220703 15.57583008 9.0546875 17.08984375 C9.37937012 18.00628662 9.70405273 18.92272949 10.03857422 19.86694336 C10.80435497 22.16536849 10.80435497 22.16536849 13 23 C13 23.66 13 24.32 13 25 C9.7 25 6.4 25 3 25 C3 24.34 3 23.68 3 23 C4.32 23 5.64 23 7 23 C6.34 21.02 5.68 19.04 5 17 C2.03 16.67 -0.94 16.34 -4 16 C-4.33 18.31 -4.66 20.62 -5 23 C-4.01 23 -3.02 23 -2 23 C-2 23.66 -2 24.32 -2 25 C-4.64 25 -7.28 25 -10 25 C-10 24.34 -10 23.68 -10 23 C-9.34 23 -8.68 23 -8 23 C-7.84144531 22.42894531 -7.68289062 21.85789062 -7.51953125 21.26953125 C-5.43046536 14.00973874 -2.78353698 7.01935413 0 0 Z " fill="#787878" transform="translate(129,43)"/>
<path d="M0 0 C3.07469523 1.70251719 5.40613254 3.81226508 7 7 C7.59490278 12.72021903 7.20728341 17.07452904 4 22 C1.8125 24.375 1.8125 24.375 0 26 C2.31 26.99 4.62 27.98 7 29 C6.67 29.66 6.34 30.32 6 31 C0.62595958 30.58661228 -1.32524771 29.7895883 -5 26 C-6.155 25.690625 -7.31 25.38125 -8.5 25.0625 C-12 24 -12 24 -14.4375 22.125 C-16.90288237 17.19423527 -16.86777502 12.39624804 -16 7 C-12.53212669 0.19221919 -7.11121478 -1.0977043 0 0 Z M-11.5 3.8125 C-13.72782394 8.54662587 -13.74859181 12.86018407 -13 18 C-11.66983836 21.22838773 -11.66983836 21.22838773 -9 23 C-5.60030189 24.3309316 -5.60030189 24.3309316 -2 24 C1.20082983 21.49500274 2.7127358 19.8617926 4 16 C4.46833571 9.64965653 4.46833571 9.64965653 2 4 C-2.59454781 0.93696812 -7.05374737 0.58896685 -11.5 3.8125 Z " fill="#686868" transform="translate(227,43)"/>
<path d="M0 0 C0.99 0.66 1.98 1.32 3 2 C3.1875 5.125 3.1875 5.125 3 8 C-0.63 8 -4.26 8 -8 8 C-7.34 9.65 -6.68 11.3 -6 13 C-3.36 13.33 -0.72 13.66 2 14 C0 16 0 16 -3.375 16.4375 C-7 16 -7 16 -9.4375 13.9375 C-11.38925759 10.26819573 -11.59677999 8.10286241 -11 4 C-8.09139144 -0.53742936 -5.13682457 -0.56038086 0 0 Z " fill="#7D7D7D" transform="translate(193,52)"/>
<path d="M0 0 C2.12472576 -0.05386629 4.24983652 -0.09273071 6.375 -0.125 C7.55835938 -0.14820313 8.74171875 -0.17140625 9.9609375 -0.1953125 C13 0 13 0 15 2 C15.1953125 4.8203125 15.1953125 4.8203125 15.125 8.125 C15.10695312 9.22070312 15.08890625 10.31640625 15.0703125 11.4453125 C15.04710937 12.28835937 15.02390625 13.13140625 15 14 C15.99 14 16.98 14 18 14 C18 14.66 18 15.32 18 16 C15.36 16 12.72 16 10 16 C10 15.34 10 14.68 10 14 C10.66 14 11.32 14 12 14 C11.67 10.37 11.34 6.74 11 3 C9.35 3 7.7 3 6 3 C5.67 6.63 5.34 10.26 5 14 C5.99 14.33 6.98 14.66 8 15 C8 15.33 8 15.66 8 16 C5.03 16 2.06 16 -1 16 C-0.67 15.34 -0.34 14.68 0 14 C0.66 14 1.32 14 2 14 C2 10.04 2 6.08 2 2 C1.34 2 0.68 2 0 2 C0 1.34 0 0.68 0 0 Z " fill="#7B7B7B" transform="translate(144,52)"/>
<path d="M0 0 C2.34914492 2.34914492 2.73140357 3.95679446 3.625 7.125 C3.88539063 8.03507812 4.14578125 8.94515625 4.4140625 9.8828125 C4.70410156 10.93082031 4.70410156 10.93082031 5 12 C2.03 12 -0.94 12 -4 12 C-4.33 14.31 -4.66 16.62 -5 19 C-4.01 19 -3.02 19 -2 19 C-2 19.66 -2 20.32 -2 21 C-4.64 21 -7.28 21 -10 21 C-10 20.34 -10 19.68 -10 19 C-9.34 19 -8.68 19 -8 19 C-7.80664062 18.32453125 -7.61328125 17.6490625 -7.4140625 16.953125 C-7.15367188 16.06109375 -6.89328125 15.1690625 -6.625 14.25 C-6.36976562 13.36828125 -6.11453125 12.4865625 -5.8515625 11.578125 C-4.69597295 8.07955112 -3.61659803 5.61659803 -1 3 C-0.67 2.01 -0.34 1.02 0 0 Z " fill="#808080" transform="translate(129,47)"/>
<path d="M0 0 C0 8.25 0 16.5 0 25 C-0.99 25 -1.98 25 -3 25 C-3.02505615 24.34402832 -3.0501123 23.68805664 -3.07592773 23.01220703 C-3.1917326 20.04959817 -3.31452886 17.08731969 -3.4375 14.125 C-3.47681641 13.09246094 -3.51613281 12.05992188 -3.55664062 10.99609375 C-3.59853516 10.00996094 -3.64042969 9.02382813 -3.68359375 8.0078125 C-3.72025146 7.09660645 -3.75690918 6.18540039 -3.79467773 5.24658203 C-3.86577065 2.96516519 -3.86577065 2.96516519 -5 1 C-3 0 -3 0 0 0 Z " fill="#6D6D6D" transform="translate(205,42)"/>
<path d="M0 0 C0.845625 0.845625 1.69125 1.69125 2.5625 2.5625 C5.32322862 4.87182987 5.83495922 5 9.6875 5 C12.79372639 4.06227128 14.10947915 3.5577635 16 1 C15.25 5.75 15.25 5.75 13 8 C16.465 9.485 16.465 9.485 20 11 C19.67 11.66 19.34 12.32 19 13 C13.62595958 12.58661228 11.67475229 11.7895883 8 8 C6.80375 7.67 5.6075 7.34 4.375 7 C1 6 1 6 -0.5 4 C-1 2 -1 2 0 0 Z " fill="#727272" transform="translate(214,61)"/>
<path d="M0 0 C0.99 0 1.98 0 3 0 C3 0.66 3 1.32 3 2 C2.01 2 1.02 2 0 2 C0.33 2.66 0.66 3.32 1 4 C1.039992 5.99960012 1.04346799 8.00047242 1 10 C0.01 10.495 0.01 10.495 -1 11 C-1.66 8.69 -2.32 6.38 -3 4 C-4.32 4 -5.64 4 -7 4 C-7 6.64 -7 9.28 -7 12 C-8.32 11.34 -9.64 10.68 -11 10 C-10.67 7.69 -10.34 5.38 -10 3 C-9.04287109 2.80083984 -9.04287109 2.80083984 -8.06640625 2.59765625 C-7.24011719 2.42105469 -6.41382813 2.24445312 -5.5625 2.0625 C-4.73878906 1.88847656 -3.91507813 1.71445312 -3.06640625 1.53515625 C-1.02338796 1.19247006 -1.02338796 1.19247006 0 0 Z " fill="#696969" transform="translate(176,50)"/>
<path d="M0 0 C1.67542976 0.28604898 3.34385343 0.61781233 5 1 C5 3.31 5 5.62 5 8 C3.125 8.625 3.125 8.625 1 9 C-1 7 -1 7 -1.1875 3.9375 C-1 1 -1 1 0 0 Z " fill="#F6F6F6" transform="translate(169,53)"/>
<path d="M0 0 C2.97 0 5.94 0 9 0 C8.67 1.65 8.34 3.3 8 5 C5.36 5 2.72 5 0 5 C0 3.35 0 1.7 0 0 Z " fill="#FBFBFB" transform="translate(167,70)"/>
<path d="M0 0 C0.99 0 1.98 0 3 0 C4.25664978 2.90600261 5 4.79604584 5 8 C4.34 8 3.68 8 3 8 C2.67 8.66 2.34 9.32 2 10 C1.67 8.68 1.34 7.36 1 6 C0.34 7.65 -0.32 9.3 -1 11 C-2.1875 9.4375 -2.1875 9.4375 -3 7 C-1.625 3.25 -1.625 3.25 0 0 Z " fill="#7C7C7C" transform="translate(129,43)"/>
<path d="M0 0 C0.33 0 0.66 0 1 0 C1 4.29 1 8.58 1 13 C2.32 13.33 3.64 13.66 5 14 C5 14.33 5 14.66 5 15 C2.03 15 -0.94 15 -4 15 C-3.67 14.34 -3.34 13.68 -3 13 C-2.34 13 -1.68 13 -1 13 C-1.01160156 12.14535156 -1.02320313 11.29070312 -1.03515625 10.41015625 C-1.04869141 8.75306641 -1.04869141 8.75306641 -1.0625 7.0625 C-1.07410156 5.96035156 -1.08570313 4.85820313 -1.09765625 3.72265625 C-1 1 -1 1 0 0 Z " fill="#727272" transform="translate(147,53)"/>
<path d="M0 0 C0.66 0 1.32 0 2 0 C2 4.62 2 9.24 2 14 C1.01 13.67 0.02 13.34 -1 13 C-1.02686553 11.02090602 -1.04633375 9.04171029 -1.0625 7.0625 C-1.07410156 5.96035156 -1.08570313 4.85820313 -1.09765625 3.72265625 C-1 1 -1 1 0 0 Z " fill="#636363" transform="translate(212,49)"/>
<path d="M0 0 C0.33 0 0.66 0 1 0 C1.66 2.97 2.32 5.94 3 9 C5.64 9.33 8.28 9.66 11 10 C9 12 9 12 5.5625 12.3125 C2 12 2 12 0.0625 11 C-1.69514653 7.69148889 -1.23910554 4.70613592 -1 1 C-0.67 0.67 -0.34 0.34 0 0 Z " fill="#6D6D6D" transform="translate(184,56)"/>
<path d="M0 0 C2.97903734 2.97903734 4 5.80285329 4 10 C1.69 10 -0.62 10 -3 10 C-2.01 6.7 -1.02 3.4 0 0 Z " fill="#EEEEEE" transform="translate(129,47)"/>
<path d="M0 0 C0 1.32 0 2.64 0 4 C-2.31 4 -4.62 4 -7 4 C-7 2.68 -7 1.36 -7 0 C-4.3333581 -1.33332095 -2.83319697 -0.67102033 0 0 Z " fill="#F6F6F6" transform="translate(193,54)"/>
<path d="M0 0 C-2 2 -2 2 -5.375 2.375 C-9.3647155 3.06288198 -10.51327198 3.91645726 -13 7 C-13.66 6.34 -14.32 5.68 -15 5 C-10.11364631 -0.01164481 -6.90153688 -0.69015369 0 0 Z " fill="#7E7E7E" transform="translate(227,43)"/>
<path d="M0 0 C1.0625 1.875 1.0625 1.875 2 4 C1.67 4.66 1.34 5.32 1 6 C-1.75078884 6.91692961 -3.35948913 7.10886083 -6.1875 7.0625 C-8.0746875 7.0315625 -8.0746875 7.0315625 -10 7 C-6.81237635 4.87491756 -4.73487777 4.4979837 -1 4 C-0.67 2.68 -0.34 1.36 0 0 Z " fill="#929292" transform="translate(176,70)"/>
<path d="M0 0 C0.99 0 1.98 0 3 0 C3.625 2.8125 3.625 2.8125 4 6 C3.01 7.485 3.01 7.485 2 9 C1.34 6.03 0.68 3.06 0 0 Z " fill="#696969" transform="translate(132,51)"/>
<path d="M0 0 C2.97 0 5.94 0 9 0 C9 1.98 9 3.96 9 6 C8.34 6 7.68 6 7 6 C6.67 4.68 6.34 3.36 6 2 C3.03 1.505 3.03 1.505 0 1 C0 0.67 0 0.34 0 0 Z " fill="#5D5D5D" transform="translate(170,68)"/>
</svg>
